<svg xmlns="http://www.w3.org/2000/svg" width="167.912" height="135.521" viewBox="0 0 167.912 135.521">
  <g id="logo" transform="translate(-4.638 -38.466)">
    <g id="Group_1" data-name="Group 1" transform="translate(4.638 89.221)">
      <path id="Path_1" data-name="Path 1" d="M106.143,236.227a.532.532,0,0,0-.057-.227l.029-31.591V201.6l-.142-9.6a4.034,4.034,0,0,0-8.068.057v40.8h-.029l-.085.71v3.58a5.054,5.054,0,0,1-.028.653,6.275,6.275,0,0,1-1.96,4.034,6.059,6.059,0,0,1-2.926,1.449,5.316,5.316,0,0,1-1.193.113,4.49,4.49,0,0,1-1.08-.113,5.469,5.469,0,0,1-3.154-1.62,5.536,5.536,0,0,1-1.733-3.864,1.854,1.854,0,0,1-.029-.4v-4.545H85.6v-40.8a4.048,4.048,0,0,0-8.1-.057l-.142,9.6v34.062l-.028.568-.029.256-.057.767a16.068,16.068,0,0,0,.227,2.642c.085.427.17.852.284,1.279a12.4,12.4,0,0,0,.909,2.414c.2.4.4.767.625,1.137l.6.937c.085.113.17.2.256.313.227.284.455.568.682.824a3.683,3.683,0,0,0,.455.483.222.222,0,0,0,.113.113c0,.028.057.085.085.113a3.239,3.239,0,0,0,.483.426,10.469,10.469,0,0,0,1.051.909,11.554,11.554,0,0,0,1.563,1.051c.341.2.682.369,1.051.54l.17.085a8.511,8.511,0,0,0,1.08.426,13.1,13.1,0,0,0,1.818.483,7.835,7.835,0,0,0,1.42.227,6.462,6.462,0,0,0,1.278.056,1.756,1.756,0,0,0,.4.028.97.97,0,0,0,.284-.028,6.467,6.467,0,0,0,1.279-.056,7.849,7.849,0,0,0,1.42-.227,13.11,13.11,0,0,0,1.818-.483,8.512,8.512,0,0,0,1.08-.426l.17-.085c.369-.17.71-.341,1.051-.54a18.76,18.76,0,0,0,1.562-1.051,10.421,10.421,0,0,0,1.051-.909,5.134,5.134,0,0,0,.568-.54c.2-.2.369-.4.568-.6.227-.256.455-.54.682-.824.085-.113.17-.2.255-.313q.3-.426.6-.937a8.37,8.37,0,0,0,.6-1.108,10.474,10.474,0,0,0,.511-1.165,10.162,10.162,0,0,0,.4-1.222,13.762,13.762,0,0,0,.54-4.147c-.028-.227-.028-.426-.057-.6A.882.882,0,0,1,106.143,236.227Z" transform="translate(-42.487 -167.173)" fill="#262626"/>
      <path id="Path_2" data-name="Path 2" d="M32.522,152.641a12.616,12.616,0,0,0-3.058-4.314,14.761,14.761,0,0,0-4.552-2.819,14.968,14.968,0,0,0-5.521-1.029L4.638,144.7l.015.713c.068,3.232.119,8.292.154,15.048s.017,15.644-.051,26.4q-.1,16.092-.1,26.359v15.72H19.082a13.984,13.984,0,0,0,9.758-3.793,13.763,13.763,0,0,0,4.672-9.5L33.5,159.766a9.506,9.506,0,0,0,.115-1.684A13.587,13.587,0,0,0,32.522,152.641ZM25.283,214.6a5.632,5.632,0,0,1-1.812,4.239,5.967,5.967,0,0,1-4.338,1.765H13.086l-.1-62.614v-6.109h3.343c.817,0,1.737.036,2.761.1l.046,0a5.8,5.8,0,0,1,4.279,1.756,6.087,6.087,0,0,1,1.87,4.25Z" transform="translate(-4.638 -144.479)" fill="#262626"/>
      <path id="Path_3" data-name="Path 3" d="M178.633,202.491l-.006-.288a14.214,14.214,0,0,0-1.569-5.047,14.019,14.019,0,0,0-3.193-4.023,15.255,15.255,0,0,0-4.418-2.649,14.161,14.161,0,0,0-5.192-.979h-.631a13.4,13.4,0,0,0-9.737,4.439,13.718,13.718,0,0,0-4.009,10.1v.71h8.331v-.918a5.633,5.633,0,0,1,1.809-4.234,5.971,5.971,0,0,1,4.34-1.759,5.8,5.8,0,0,1,4.279,1.754,5.7,5.7,0,0,1,1.766,4.239v1.523l-11.417,5.762a14.527,14.527,0,0,0-6.5,5.147,13.725,13.725,0,0,0-2.5,8.1l-.1,13.927a14.369,14.369,0,0,0,24.1,10.634c2.8-2.519,4.568-5.078,4.655-9.4l-.021-34.18a8.931,8.931,0,0,0,.021-2.852ZM170.4,238.286a5.87,5.87,0,0,1-1.772,4.3,5.713,5.713,0,0,1-4.272,1.8,5.883,5.883,0,0,1-4.334-1.806,5.788,5.788,0,0,1-1.816-4.289v-13.8a5.3,5.3,0,0,1,2.73-4.989l9.461-4.822,0,0Z" transform="translate(-80.343 -167.948)" fill="#262626"/>
      <path id="Path_4" data-name="Path 4" d="M238.5,166.369a14.189,14.189,0,0,0-7.61,1.285l.02-17.93a4.163,4.163,0,1,0-8.325,0l.01,29.849-.1,34.859a14.423,14.423,0,0,0,3.388,9.953,14,14,0,0,0,10.977,5.115h.76a14.444,14.444,0,0,0,13.619-14.407l.071-32.577c.024-.339.031-.671.031-.992V180.7a13.9,13.9,0,0,0-3.752-9.7A14.488,14.488,0,0,0,238.5,166.369Zm4.507,48.179v.724a5.58,5.58,0,0,1-1.047,3.162,6.289,6.289,0,0,1-5.912,2.677,5.881,5.881,0,0,1-3.44-1.708,5.552,5.552,0,0,1-1.8-4.145V180.843a6.063,6.063,0,0,1,1.411-4.055,6,6,0,0,1,4.687-2.167,5.722,5.722,0,0,1,4.242,1.757,5.823,5.823,0,0,1,1.753,4.355l.1.71Z" transform="translate(-118.187 -145.041)" fill="#262626"/>
      <path id="Path_5" data-name="Path 5" d="M323.943,203.934a6.156,6.156,0,0,0-.1-1.443l-.006-.291a14.3,14.3,0,0,0-1.57-5.044,13.978,13.978,0,0,0-3.2-4.023,15.267,15.267,0,0,0-4.414-2.649,14.162,14.162,0,0,0-5.194-.979h-.63a13.4,13.4,0,0,0-9.738,4.439,13.718,13.718,0,0,0-4.009,10.1v.71h8.331v-.918a5.619,5.619,0,0,1,1.809-4.234,5.97,5.97,0,0,1,4.339-1.759,5.8,5.8,0,0,1,4.281,1.754,5.7,5.7,0,0,1,1.767,4.239v1.523l-11.419,5.762a14.539,14.539,0,0,0-6.5,5.147,13.727,13.727,0,0,0-2.5,8.1l-.1,13.927a14.37,14.37,0,0,0,24.1,10.634,13.677,13.677,0,0,0,4.655-9.4l-.02-34.182A6.152,6.152,0,0,0,323.943,203.934Zm-8.331,34.351a5.867,5.867,0,0,1-1.775,4.3,5.711,5.711,0,0,1-4.272,1.8,5.888,5.888,0,0,1-4.334-1.806,5.783,5.783,0,0,1-1.815-4.289V224.463a5.815,5.815,0,0,1,2.73-4.965l9.46-4.822.005,0Z" transform="translate(-156.031 -167.948)" fill="#262626"/>
    </g>
    <path id="Path_6" data-name="Path 6" d="M172.15,96.929a17.186,17.186,0,0,1,7.288,1.331c1.687.678,1.933,1.073,1.858,2.859-.276,6.554-3.42,11.562-8.578,15.326a20.784,20.784,0,0,1-19.548,3.274c-2.313-.747-2.649-1.623-2.434-4.057.8-9.081,8.721-16.717,17.961-18.484A28.676,28.676,0,0,1,172.15,96.929Zm2.977,6.164a5.427,5.427,0,0,0-1.2-.392,16.2,16.2,0,0,0-6.354.493c-4.894,1.62-8.461,4.658-10.28,9.561a10.228,10.228,0,0,0-.332,1.911C165.6,117.081,174.382,109.855,175.127,103.093Z" transform="translate(-76.123 -30.464)" fill="#fc8f02"/>
    <path id="Path_7" data-name="Path 7" d="M99.981,120.807c-9.159-.567-15.934-4.829-19.936-13.2a15.155,15.155,0,0,1-1.395-6.564A2.484,2.484,0,0,1,80.3,98.5a18.373,18.373,0,0,1,13.048-.683c7.034,2.1,12.229,6.432,14.836,13.434a28.592,28.592,0,0,1,1.092,5.577,2.245,2.245,0,0,1-1.643,2.534A18.087,18.087,0,0,1,99.981,120.807Zm2.842-6.072c.375-2.993-2.618-7.475-6.739-9.849-3.513-2.023-7.258-2.965-11.312-1.746C85.8,110.581,94.933,116.982,102.823,114.735Z" transform="translate(-38.578 -30.479)" fill="#ffc600"/>
    <path id="Path_8" data-name="Path 8" d="M145.634,56.326a20.073,20.073,0,0,1-5.9,14.887,19.5,19.5,0,0,1-2.389,2,2.37,2.37,0,0,1-3.323-.008,19.537,19.537,0,0,1-8.158-14.146c-.659-5.685.382-11.112,3.95-15.753a30.95,30.95,0,0,1,4.47-4.3c1.025-.885,2.122-.581,3.166.2a19.967,19.967,0,0,1,8.175,15.391C145.67,55.167,145.634,55.748,145.634,56.326Zm-9.927,10.6c5.747-4.325,6.525-16.276,0-21.564C130.03,49.7,129.08,61.542,135.708,66.923Z" transform="translate(-63.093)" fill="#a7c521"/>
  </g>
</svg>
