<svg width="21" height="26" viewBox="0 0 21 26" fill="none" xmlns="http://www.w3.org/2000/svg">
<path d="M12.4791 22.4522C12.2878 22.4515 12.102 22.5167 11.9528 22.6368C11.8035 22.7568 11.6999 22.9245 11.6592 23.1119C11.6099 23.3695 11.499 23.6114 11.3359 23.8166C11.205 23.9579 11.0426 24.0661 10.8619 24.1325C10.6813 24.1988 10.4875 24.2214 10.2965 24.1985C10.1056 24.2198 9.9123 24.1964 9.73193 24.1302C9.55155 24.0639 9.389 23.9566 9.25708 23.8166C9.09402 23.6114 8.9831 23.3695 8.93386 23.1119C8.89311 22.9245 8.78948 22.7568 8.64026 22.6368C8.49104 22.5167 8.30525 22.4515 8.11389 22.4522C7.98777 22.4524 7.86331 22.481 7.74971 22.5359C7.6361 22.5908 7.53626 22.6706 7.45755 22.7693C7.37883 22.8681 7.32327 22.9833 7.29494 23.1064C7.26662 23.2296 7.26627 23.3575 7.29391 23.4808C7.41301 24.1805 7.78484 24.8119 8.33857 25.2546C8.8923 25.6972 9.5892 25.9203 10.2965 25.8813C11.0041 25.9216 11.7016 25.6989 12.2556 25.256C12.8096 24.8131 13.1811 24.1811 13.2991 23.4808C13.3262 23.3576 13.3255 23.2298 13.2969 23.1069C13.2684 22.9839 13.2128 22.8689 13.1342 22.7703C13.0556 22.6717 12.956 22.592 12.8426 22.5369C12.7293 22.4819 12.6051 22.4529 12.4791 22.4522Z" fill="black"/>
<path d="M20.3763 19.1654C19.3819 17.8524 17.4261 17.0823 17.4261 11.2021C17.4261 5.16628 14.7632 2.73726 12.284 2.1576C12.0517 2.09964 11.8837 2.02143 11.8837 1.77577V1.59175C11.885 1.176 11.7234 0.776345 11.4338 0.478691C11.1441 0.181037 10.7494 0.00915644 10.3346 0H10.2961C9.88125 0.00915644 9.48659 0.181037 9.19693 0.478691C8.90726 0.776345 8.74571 1.176 8.74702 1.59175V1.77577C8.74702 2.01499 8.57898 2.09964 8.34667 2.1576C5.86104 2.74646 3.20461 5.16628 3.20461 11.2021C3.20461 17.0823 1.2488 17.846 0.254359 19.1654C0.112079 19.3569 0.0257155 19.5843 0.00491052 19.8221C-0.0158944 20.06 0.0296777 20.2989 0.136539 20.5123C0.243401 20.7257 0.407347 20.9051 0.610076 21.0306C0.812805 21.156 1.04634 21.2225 1.28461 21.2227H19.369C19.6053 21.2183 19.8359 21.1488 20.0353 21.0217C20.2347 20.8945 20.3953 20.7148 20.4994 20.5022C20.6035 20.2895 20.6471 20.0523 20.6254 19.8164C20.6037 19.5806 20.5175 19.3553 20.3763 19.1654ZM17.8586 19.5408H2.80243C2.7477 19.5412 2.69404 19.5256 2.64795 19.4961C2.60187 19.4665 2.56533 19.4242 2.54278 19.3742C2.52023 19.3242 2.51263 19.2688 2.52091 19.2146C2.52918 19.1604 2.55298 19.1097 2.5894 19.0688C3.15624 18.4278 3.61439 17.698 3.94562 16.9084C4.6279 15.0871 4.9416 13.1479 4.86844 11.2039C4.75319 9.24034 5.22301 7.28677 6.21823 5.59136C6.79111 4.69598 7.68511 4.05508 8.7158 3.80088C9.1769 3.70528 9.59676 3.46791 9.91683 3.12185C9.96383 3.06614 10.0222 3.02115 10.0879 2.98989C10.1537 2.95863 10.2254 2.94183 10.2982 2.94061C10.371 2.93939 10.4432 2.95378 10.51 2.98282C10.5767 3.01186 10.6366 3.05487 10.6854 3.10897C11.0103 3.45811 11.4338 3.69951 11.8993 3.80088C12.9296 4.05373 13.8238 4.69293 14.3978 5.58676C15.393 7.28217 15.8628 9.23574 15.7476 11.1993C15.6744 13.1433 15.9881 15.0825 16.6704 16.9038C17.0096 17.7065 17.4787 18.4476 18.0587 19.0973C18.0923 19.136 18.1141 19.1835 18.1215 19.2342C18.1289 19.2849 18.1217 19.3367 18.1006 19.3834C18.0795 19.4301 18.0455 19.4697 18.0026 19.4976C17.9597 19.5255 17.9097 19.5405 17.8586 19.5408Z" fill="black"/>
</svg>
